G04 Layer: TopSilkLayer*
G04 EasyEDA v6.4.19.4, 2021-06-20T15:31:19+02:00*
G04 e6e026fb29b945aabfb51621ac71b843,10*
G04 Gerber Generator version 0.2*
G04 Scale: 100 percent, Rotated: No, Reflected: No *
G04 Dimensions in millimeters *
G04 leading zeros omitted , absolute positions ,4 integer and 5 decimal *
%FSLAX45Y45*%
%MOMM*%

%ADD10C,0.2540*%
%ADD22C,0.2007*%
%ADD23C,0.1524*%
%ADD24C,0.4000*%
%ADD25C,0.2032*%

%LPD*%
D23*
X4194047Y8979915D02*
G01*
X4194047Y8901937D01*
X4199127Y8886444D01*
X4209541Y8876029D01*
X4225290Y8870950D01*
X4235704Y8870950D01*
X4251197Y8876029D01*
X4261611Y8886444D01*
X4266691Y8901937D01*
X4266691Y8979915D01*
X4300981Y8959087D02*
G01*
X4311395Y8964421D01*
X4327143Y8979915D01*
X4327143Y8870950D01*
D25*
X3800347Y8599678D02*
G01*
X3800347Y8405876D01*
X3800347Y8599678D02*
G01*
X3874261Y8405876D01*
X3948175Y8599678D02*
G01*
X3874261Y8405876D01*
X3948175Y8599678D02*
G01*
X3948175Y8405876D01*
X4009136Y8562847D02*
G01*
X4027677Y8571992D01*
X4055363Y8599678D01*
X4055363Y8405876D01*
X4213606Y8838692D02*
G01*
X4213606Y8672576D01*
X4130547Y8755634D02*
G01*
X4296918Y8755634D01*
X4422647Y8755634D02*
G01*
X4589018Y8755634D01*
D23*
X5070347Y6693915D02*
G01*
X5112004Y6584950D01*
X5153406Y6693915D02*
G01*
X5112004Y6584950D01*
X5187695Y6673087D02*
G01*
X5198109Y6678421D01*
X5213858Y6693915D01*
X5213858Y6584950D01*
X3047491Y7440421D02*
G01*
X3037077Y7450836D01*
X3021584Y7455915D01*
X3000756Y7455915D01*
X2985261Y7450836D01*
X2974847Y7440421D01*
X2974847Y7430008D01*
X2979927Y7419594D01*
X2985261Y7414260D01*
X2995675Y7409179D01*
X3026918Y7398765D01*
X3037077Y7393686D01*
X3042411Y7388352D01*
X3047491Y7377937D01*
X3047491Y7362444D01*
X3037077Y7352029D01*
X3021584Y7346950D01*
X3000756Y7346950D01*
X2985261Y7352029D01*
X2974847Y7362444D01*
X3081781Y7455915D02*
G01*
X3107943Y7346950D01*
X3133852Y7455915D02*
G01*
X3107943Y7346950D01*
X3133852Y7455915D02*
G01*
X3159759Y7346950D01*
X3185668Y7455915D02*
G01*
X3159759Y7346950D01*
X3219958Y7435087D02*
G01*
X3230372Y7440421D01*
X3246120Y7455915D01*
X3246120Y7346950D01*
X1554990Y7455915D02*
G01*
X1544576Y7450836D01*
X1534162Y7440421D01*
X1528828Y7430008D01*
X1523748Y7414260D01*
X1523748Y7388352D01*
X1528828Y7372858D01*
X1534162Y7362444D01*
X1544576Y7352029D01*
X1554990Y7346950D01*
X1575818Y7346950D01*
X1585978Y7352029D01*
X1596392Y7362444D01*
X1601726Y7372858D01*
X1606806Y7388352D01*
X1606806Y7414260D01*
X1601726Y7430008D01*
X1596392Y7440421D01*
X1585978Y7450836D01*
X1575818Y7455915D01*
X1554990Y7455915D01*
X1570484Y7367523D02*
G01*
X1601726Y7336536D01*
X1693166Y7455915D02*
G01*
X1641096Y7383271D01*
X1719074Y7383271D01*
X1693166Y7455915D02*
G01*
X1693166Y7346950D01*
X3078990Y8979915D02*
G01*
X3068576Y8974836D01*
X3058162Y8964421D01*
X3052828Y8954008D01*
X3047748Y8938260D01*
X3047748Y8912352D01*
X3052828Y8896858D01*
X3058162Y8886444D01*
X3068576Y8876029D01*
X3078990Y8870950D01*
X3099818Y8870950D01*
X3109978Y8876029D01*
X3120392Y8886444D01*
X3125726Y8896858D01*
X3130806Y8912352D01*
X3130806Y8938260D01*
X3125726Y8954008D01*
X3120392Y8964421D01*
X3109978Y8974836D01*
X3099818Y8979915D01*
X3078990Y8979915D01*
X3094484Y8891524D02*
G01*
X3125726Y8860536D01*
X3175510Y8979915D02*
G01*
X3232660Y8979915D01*
X3201418Y8938260D01*
X3217166Y8938260D01*
X3227580Y8933179D01*
X3232660Y8928100D01*
X3237994Y8912352D01*
X3237994Y8901937D01*
X3232660Y8886444D01*
X3222246Y8876029D01*
X3206752Y8870950D01*
X3191258Y8870950D01*
X3175510Y8876029D01*
X3170430Y8881110D01*
X3165096Y8891524D01*
X4031488Y6185915D02*
G01*
X4031488Y6076950D01*
X4031488Y6185915D02*
G01*
X4078224Y6185915D01*
X4093718Y6180836D01*
X4099052Y6175502D01*
X4104131Y6165087D01*
X4104131Y6154673D01*
X4099052Y6144260D01*
X4093718Y6139179D01*
X4078224Y6134100D01*
X4031488Y6134100D01*
X4067809Y6134100D02*
G01*
X4104131Y6076950D01*
X4200906Y6185915D02*
G01*
X4148836Y6185915D01*
X4143756Y6139179D01*
X4148836Y6144260D01*
X4164584Y6149594D01*
X4180077Y6149594D01*
X4195572Y6144260D01*
X4205986Y6134100D01*
X4211320Y6118352D01*
X4211320Y6107937D01*
X4205986Y6092444D01*
X4195572Y6082029D01*
X4180077Y6076950D01*
X4164584Y6076950D01*
X4148836Y6082029D01*
X4143756Y6087110D01*
X4138422Y6097523D01*
X5301488Y8217915D02*
G01*
X5301488Y8108950D01*
X5301488Y8217915D02*
G01*
X5348224Y8217915D01*
X5363718Y8212836D01*
X5369052Y8207502D01*
X5374131Y8197087D01*
X5374131Y8186673D01*
X5369052Y8176260D01*
X5363718Y8171179D01*
X5348224Y8166100D01*
X5301488Y8166100D01*
X5337809Y8166100D02*
G01*
X5374131Y8108950D01*
X5481320Y8217915D02*
G01*
X5429250Y8108950D01*
X5408422Y8217915D02*
G01*
X5481320Y8217915D01*
X5301488Y7455915D02*
G01*
X5301488Y7346950D01*
X5301488Y7455915D02*
G01*
X5348224Y7455915D01*
X5363718Y7450836D01*
X5369052Y7445502D01*
X5374131Y7435087D01*
X5374131Y7424673D01*
X5369052Y7414260D01*
X5363718Y7409179D01*
X5348224Y7404100D01*
X5301488Y7404100D01*
X5337809Y7404100D02*
G01*
X5374131Y7346950D01*
X5434584Y7455915D02*
G01*
X5418836Y7450836D01*
X5413756Y7440421D01*
X5413756Y7430008D01*
X5418836Y7419594D01*
X5429250Y7414260D01*
X5450077Y7409179D01*
X5465572Y7404100D01*
X5475986Y7393686D01*
X5481320Y7383271D01*
X5481320Y7367523D01*
X5475986Y7357110D01*
X5470906Y7352029D01*
X5455158Y7346950D01*
X5434584Y7346950D01*
X5418836Y7352029D01*
X5413756Y7357110D01*
X5408422Y7367523D01*
X5408422Y7383271D01*
X5413756Y7393686D01*
X5424170Y7404100D01*
X5439663Y7409179D01*
X5460491Y7414260D01*
X5470906Y7419594D01*
X5475986Y7430008D01*
X5475986Y7440421D01*
X5470906Y7450836D01*
X5455158Y7455915D01*
X5434584Y7455915D01*
X1491487Y6185915D02*
G01*
X1491487Y6076950D01*
X1491487Y6185915D02*
G01*
X1538223Y6185915D01*
X1553718Y6180836D01*
X1559052Y6175502D01*
X1564131Y6165087D01*
X1564131Y6154673D01*
X1559052Y6144260D01*
X1553718Y6139179D01*
X1538223Y6134100D01*
X1491487Y6134100D01*
X1527810Y6134100D02*
G01*
X1564131Y6076950D01*
X1598421Y6165087D02*
G01*
X1608836Y6170421D01*
X1624584Y6185915D01*
X1624584Y6076950D01*
X2761488Y6185915D02*
G01*
X2761488Y6076950D01*
X2761488Y6185915D02*
G01*
X2808224Y6185915D01*
X2823718Y6180836D01*
X2829052Y6175502D01*
X2834131Y6165087D01*
X2834131Y6154673D01*
X2829052Y6144260D01*
X2823718Y6139179D01*
X2808224Y6134100D01*
X2761488Y6134100D01*
X2797809Y6134100D02*
G01*
X2834131Y6076950D01*
X2873756Y6160007D02*
G01*
X2873756Y6165087D01*
X2878836Y6175502D01*
X2884170Y6180836D01*
X2894584Y6185915D01*
X2915158Y6185915D01*
X2925572Y6180836D01*
X2930906Y6175502D01*
X2935986Y6165087D01*
X2935986Y6154673D01*
X2930906Y6144260D01*
X2920491Y6128765D01*
X2868422Y6076950D01*
X2941320Y6076950D01*
X5301488Y8979915D02*
G01*
X5301488Y8870950D01*
X5301488Y8979915D02*
G01*
X5348224Y8979915D01*
X5363718Y8974836D01*
X5369052Y8969502D01*
X5374131Y8959087D01*
X5374131Y8948674D01*
X5369052Y8938260D01*
X5363718Y8933179D01*
X5348224Y8928100D01*
X5301488Y8928100D01*
X5337809Y8928100D02*
G01*
X5374131Y8870950D01*
X5470906Y8964421D02*
G01*
X5465572Y8974836D01*
X5450077Y8979915D01*
X5439663Y8979915D01*
X5424170Y8974836D01*
X5413756Y8959087D01*
X5408422Y8933179D01*
X5408422Y8907271D01*
X5413756Y8886444D01*
X5424170Y8876029D01*
X5439663Y8870950D01*
X5444997Y8870950D01*
X5460491Y8876029D01*
X5470906Y8886444D01*
X5475986Y8901937D01*
X5475986Y8907271D01*
X5470906Y8922765D01*
X5460491Y8933179D01*
X5444997Y8938260D01*
X5439663Y8938260D01*
X5424170Y8933179D01*
X5413756Y8922765D01*
X5408422Y8907271D01*
X2073272Y8979915D02*
G01*
X2062858Y8974836D01*
X2052444Y8964421D01*
X2047110Y8954008D01*
X2042030Y8938260D01*
X2042030Y8912352D01*
X2047110Y8896858D01*
X2052444Y8886444D01*
X2062858Y8876029D01*
X2073272Y8870950D01*
X2094100Y8870950D01*
X2104260Y8876029D01*
X2114674Y8886444D01*
X2120008Y8896858D01*
X2125088Y8912352D01*
X2125088Y8938260D01*
X2120008Y8954008D01*
X2114674Y8964421D01*
X2104260Y8974836D01*
X2094100Y8979915D01*
X2073272Y8979915D01*
X2088766Y8891524D02*
G01*
X2120008Y8860536D01*
X2164712Y8954008D02*
G01*
X2164712Y8959087D01*
X2169792Y8969502D01*
X2175126Y8974836D01*
X2185540Y8979915D01*
X2206114Y8979915D01*
X2216528Y8974836D01*
X2221862Y8969502D01*
X2226942Y8959087D01*
X2226942Y8948674D01*
X2221862Y8938260D01*
X2211448Y8922765D01*
X2159378Y8870950D01*
X2232276Y8870950D01*
X1311272Y8979915D02*
G01*
X1300858Y8974836D01*
X1290444Y8964421D01*
X1285110Y8954008D01*
X1280030Y8938260D01*
X1280030Y8912352D01*
X1285110Y8896858D01*
X1290444Y8886444D01*
X1300858Y8876029D01*
X1311272Y8870950D01*
X1332100Y8870950D01*
X1342260Y8876029D01*
X1352674Y8886444D01*
X1358008Y8896858D01*
X1363088Y8912352D01*
X1363088Y8938260D01*
X1358008Y8954008D01*
X1352674Y8964421D01*
X1342260Y8974836D01*
X1332100Y8979915D01*
X1311272Y8979915D01*
X1326766Y8891524D02*
G01*
X1358008Y8860536D01*
X1397378Y8959087D02*
G01*
X1407792Y8964421D01*
X1423540Y8979915D01*
X1423540Y8870950D01*
D10*
X4092447Y8623300D02*
G01*
X4625847Y8623300D01*
X4625847Y8369300D01*
X4092447Y8369300D01*
X4092447Y8623300D01*
D22*
X4816347Y6553200D02*
G01*
X5324347Y6553200D01*
X4816347Y6299200D02*
G01*
X4816347Y6553200D01*
X4816347Y6299200D02*
G01*
X5324347Y6299200D01*
X5324347Y6299200D02*
G01*
X5324347Y6553200D01*
D23*
X3673347Y7251700D02*
G01*
X3673347Y6921500D01*
X3609847Y6921500D01*
X3609847Y6858000D01*
X2339847Y6858000D01*
X2339847Y6921500D01*
X2276347Y6921500D01*
X2276347Y7251700D01*
X2339847Y7251700D01*
X2339847Y7315200D01*
X3609847Y7315200D01*
X3609847Y7251700D01*
X3673347Y7251700D01*
D10*
X2066444Y7214996D02*
G01*
X1006452Y7214996D01*
X1006350Y7264908D02*
G01*
X2066546Y7264908D01*
X2066546Y6785102D01*
X1006350Y6785102D01*
X1006350Y7264400D01*
X1006350Y7264908D01*
X3590444Y8738996D02*
G01*
X2530452Y8738996D01*
X2530350Y8788908D02*
G01*
X3590546Y8788908D01*
X3590546Y8309102D01*
X2530350Y8309102D01*
X2530350Y8788400D01*
X2530350Y8788908D01*
X3777488Y5994400D02*
G01*
X4285488Y5994400D01*
X4285488Y5994400D02*
G01*
X4285488Y5918200D01*
X4285488Y5918200D02*
G01*
X4285488Y5842000D01*
X4285488Y5842000D02*
G01*
X3777488Y5842000D01*
X3777488Y5842000D02*
G01*
X3777488Y5918200D01*
X3777488Y5918200D02*
G01*
X3777488Y5994400D01*
X4285488Y5918200D02*
G01*
X4310888Y5918200D01*
X3777488Y5918200D02*
G01*
X3752088Y5918200D01*
X5047488Y8026400D02*
G01*
X5555488Y8026400D01*
X5555488Y8026400D02*
G01*
X5555488Y7950200D01*
X5555488Y7950200D02*
G01*
X5555488Y7874000D01*
X5555488Y7874000D02*
G01*
X5047488Y7874000D01*
X5047488Y7874000D02*
G01*
X5047488Y7950200D01*
X5047488Y7950200D02*
G01*
X5047488Y8026400D01*
X5555488Y7950200D02*
G01*
X5580888Y7950200D01*
X5047488Y7950200D02*
G01*
X5022088Y7950200D01*
X5047488Y7264400D02*
G01*
X5555488Y7264400D01*
X5555488Y7264400D02*
G01*
X5555488Y7188200D01*
X5555488Y7188200D02*
G01*
X5555488Y7112000D01*
X5555488Y7112000D02*
G01*
X5047488Y7112000D01*
X5047488Y7112000D02*
G01*
X5047488Y7188200D01*
X5047488Y7188200D02*
G01*
X5047488Y7264400D01*
X5555488Y7188200D02*
G01*
X5580888Y7188200D01*
X5047488Y7188200D02*
G01*
X5022088Y7188200D01*
X1237487Y5994400D02*
G01*
X1745487Y5994400D01*
X1745487Y5994400D02*
G01*
X1745487Y5918200D01*
X1745487Y5918200D02*
G01*
X1745487Y5842000D01*
X1745487Y5842000D02*
G01*
X1237487Y5842000D01*
X1237487Y5842000D02*
G01*
X1237487Y5918200D01*
X1237487Y5918200D02*
G01*
X1237487Y5994400D01*
X1745487Y5918200D02*
G01*
X1770887Y5918200D01*
X1237487Y5918200D02*
G01*
X1212087Y5918200D01*
X2507488Y5994400D02*
G01*
X3015488Y5994400D01*
X3015488Y5994400D02*
G01*
X3015488Y5918200D01*
X3015488Y5918200D02*
G01*
X3015488Y5842000D01*
X3015488Y5842000D02*
G01*
X2507488Y5842000D01*
X2507488Y5842000D02*
G01*
X2507488Y5918200D01*
X2507488Y5918200D02*
G01*
X2507488Y5994400D01*
X3015488Y5918200D02*
G01*
X3040888Y5918200D01*
X2507488Y5918200D02*
G01*
X2482088Y5918200D01*
X5047488Y8788400D02*
G01*
X5555488Y8788400D01*
X5555488Y8788400D02*
G01*
X5555488Y8712200D01*
X5555488Y8712200D02*
G01*
X5555488Y8636000D01*
X5555488Y8636000D02*
G01*
X5047488Y8636000D01*
X5047488Y8636000D02*
G01*
X5047488Y8712200D01*
X5047488Y8712200D02*
G01*
X5047488Y8788400D01*
X5555488Y8712200D02*
G01*
X5580888Y8712200D01*
X5047488Y8712200D02*
G01*
X5022088Y8712200D01*
X1876930Y8788400D02*
G01*
X1876930Y7785100D01*
X2321430Y7785100D01*
X2321430Y8801100D01*
X1876930Y8801100D01*
X1114930Y8788400D02*
G01*
X1114930Y7785100D01*
X1559430Y7785100D01*
X1559430Y8801100D01*
X1114930Y8801100D01*
D24*
G75*
G01*
X1259589Y6738620D02*
G03*
X1259843Y6738620I127J-20000D01*
G75*
G01*
X2783589Y8262620D02*
G03*
X2783843Y8262620I127J-20000D01*
G75*
G01*
X1808350Y8569960D02*
G03*
X1808350Y8569706I-19999J-127D01*
G75*
G01*
X1046350Y8569960D02*
G03*
X1046350Y8569706I-19999J-127D01*
M02*
