M48
METRIC,LZ,000.000
;FILE_FORMAT=3:3
;TYPE=PLATED
;Layer: Drill PTH
;EasyEDA v6.4.19.4, 2021-06-20T15:31:19+02:00
;e6e026fb29b945aabfb51621ac71b843,10
;Gerber Generator version 0.2
;Holesize 1 = 0.310 mm
T01C0.310
;Holesize 2 = 0.900 mm
T02C0.900
;Holesize 3 = 0.915 mm
T03C0.915
;Holesize 4 = 1.400 mm
T04C1.400
;Holesize 5 = 2.400 mm
T05C2.400
%
G05
G90
T01
X033144Y073937
X036449Y079502
T02
X036505Y059182
X044125Y059182
X049205Y079502
X056825Y079502
X049205Y071882
X056825Y071882
X011105Y059182
X018725Y059182
X023805Y059182
X031425Y059182
X049205Y087122
X056825Y087122
T03
X044988Y084963
X042194Y084963
X051973Y064262
X049433Y064262
T04
X015364Y069850
X017904Y069850
X012824Y069850
X030604Y085090
X033144Y085090
X028064Y085090
X020547Y085471
X020547Y080391
X020547Y082931
X012927Y085471
X012927Y080391
X012927Y082931
T05
X034447Y070866G85X034447Y070866
X029748Y070866G85X029748Y070866
X025049Y070866G85X025049Y070866
M30
