G04 Layer: BottomLayer*
G04 EasyEDA v6.4.19.4, 2021-06-20T15:31:19+02:00*
G04 e6e026fb29b945aabfb51621ac71b843,10*
G04 Gerber Generator version 0.2*
G04 Scale: 100 percent, Rotated: No, Reflected: No *
G04 Dimensions in millimeters *
G04 leading zeros omitted , absolute positions ,4 integer and 5 decimal *
%FSLAX45Y45*%
%MOMM*%

%ADD11C,0.2600*%
%ADD12C,0.6100*%
%ADD13C,1.5240*%
%ADD14C,1.4986*%
%ADD16R,3.4160X3.4160*%
%ADD17C,3.4160*%
%ADD19C,1.8796*%
%ADD21C,2.0000*%

%LPD*%
D11*
X2054857Y8547100D02*
G01*
X2739900Y7861808D01*
X2739900Y6320792D01*
X3142493Y5918200D01*
X1292857Y8547100D02*
G01*
X1449585Y8390384D01*
X1449585Y7618219D01*
X1153157Y7321804D01*
X1153157Y6637530D01*
X1872493Y5918200D01*
X4920493Y7188200D02*
G01*
X3435611Y8673084D01*
X2970535Y8673084D01*
X2806451Y8509000D01*
X3314451Y8509000D02*
G01*
X3314451Y7393688D01*
X3444750Y7086600D02*
G01*
X3644900Y7086600D01*
X3644900Y7086600D02*
G01*
X3644900Y7950200D01*
X1292857Y8039100D02*
G01*
X1110493Y7856730D01*
X1110493Y5918200D01*
X4920493Y8712200D02*
G01*
X4435350Y8712200D01*
X4219450Y8496300D01*
X4412493Y5918200D02*
G01*
X4412493Y6409946D01*
X5044442Y7041895D01*
X5044442Y7457696D01*
X4498850Y8003288D01*
X4498850Y8496300D01*
X1536445Y6985000D02*
G01*
X1536445Y7774688D01*
X2054857Y8293100D01*
D13*
G01*
X4498847Y8496300D03*
G01*
X4219447Y8496300D03*
D14*
G01*
X5197347Y6426200D03*
G36*
X4868418Y6501129D02*
G01*
X5018277Y6501129D01*
X5018277Y6351270D01*
X4868418Y6351270D01*
G37*
D16*
G01*
X3444747Y7086600D03*
D17*
G01*
X2974847Y7086600D03*
G01*
X2504947Y7086600D03*
G36*
X1182372Y7109968D02*
G01*
X1382524Y7109968D01*
X1382524Y6860031D01*
X1182372Y6860031D01*
G37*
G36*
X2706372Y8633968D02*
G01*
X2906524Y8633968D01*
X2906524Y8384031D01*
X2706372Y8384031D01*
G37*
D19*
G01*
X3650488Y5918200D03*
G01*
X4412488Y5918200D03*
G01*
X4920488Y7950200D03*
G01*
X5682488Y7950200D03*
G01*
X4920488Y7188200D03*
G01*
X5682488Y7188200D03*
G01*
X1110487Y5918200D03*
G01*
X1872487Y5918200D03*
G01*
X2380488Y5918200D03*
G01*
X3142488Y5918200D03*
G01*
X4920488Y8712200D03*
G01*
X5682488Y8712200D03*
G36*
X2179698Y8647176D02*
G01*
X2179698Y8447024D01*
X1929762Y8447024D01*
X1929762Y8647176D01*
G37*
G36*
X1417698Y8647176D02*
G01*
X1417698Y8447024D01*
X1167762Y8447024D01*
X1167762Y8647176D01*
G37*
D12*
G01*
X3314445Y7393686D03*
G01*
X3644900Y7950200D03*
D21*
X1536448Y7009998D02*
G01*
X1536448Y6959998D01*
X1790448Y7009998D02*
G01*
X1790448Y6959998D01*
X3060448Y8533998D02*
G01*
X3060448Y8483998D01*
X3314448Y8533998D02*
G01*
X3314448Y8483998D01*
X2079731Y8039100D02*
G01*
X2029731Y8039100D01*
X2079731Y8293100D02*
G01*
X2029731Y8293100D01*
X1317731Y8039100D02*
G01*
X1267731Y8039100D01*
X1317731Y8293100D02*
G01*
X1267731Y8293100D01*
M02*
